<?xml version="1.0" encoding="UTF-8" standalone="no"?>
<svg xmlns="http://www.w3.org/2000/svg">
  <symbol id="logo-title" viewBox="-13 -14 100 26" width="100" height="26">
    <path
      d="M 9.51057,-3.09017 0,-10 -9.51057,-3.09017 -5.87785,8.09017 h 11.7557 z"
      style="fill:#5fbcd3" />
    <path
      d="M 10.7181,-2.47446 12.6668,-2.92436 8.52877,9.81122 7.21665,8.30181 Z"
      style="fill:#216778" />
    <path
      d="m 0.958713,-10.9581 0.174307,-1.9924 10.83358,7.871 -1.841,0.78146 z"
      style="fill:#216778" />
    <path
      d="m -10.1256,-4.29804 -1.841,-0.78146 10.83358,-7.871 0.174307,1.9924 z"
      style="fill:#216778" />
    <path
      d="m -7.21665,8.30181 -1.31212,1.50941 -4.13803,-12.73558 1.9487,0.4499 z"
      style="fill:#216778" />
    <path
      d="M 5.66542,9.42884 6.69549,11.1432 H -6.69549 l 1.03007,-1.71436 z"
      style="fill:#216778" />
    <path
      d="M 10.7181,-2.47446 12.6668,-2.92436 8.52877,9.81122 7.21665,8.30181 Z"
      style="fill:#216778" />
    <path
      style="fill:#ffffff"
      d="M 0,4.5424805 2.0141602,-0.89941406 H -2.0068359 Z M -0.83496094,6 -5.0097656,-4.9350586 h 1.5600586 l 0.9960937,2.8051758 H 2.4755859 L 3.4716797,-4.9350586 H 5.0097656 L 0.84228516,6 Z" />
    <path
      style="fill:#3f3f3f;"
      d="m 21.257299,-6.0843139 -2.675781,7.2558594 h 5.361328 z m -1.113281,-1.9433593 h 2.236328 L 27.936987,6.5524049 H 25.886206 L 24.558081,2.8121705 H 17.985815 L 16.65769,6.5524049 h -2.080078 z" />
    <path
      style="fill:#3f3f3f;"
      d="m 38.493628,-2.2854857 q 0.673828,-1.2109375 1.611328,-1.7871094 0.9375,-0.5761719 2.207031,-0.5761719 1.708984,0 2.636719,1.2011719 0.927734,1.1914062 0.927734,3.39843748 V 6.5524049 H 44.069799 V 0.00943613 q 0,-1.57226563 -0.55664,-2.33398433 -0.556641,-0.7617188 -1.699219,-0.7617188 -1.396484,0 -2.207031,0.9277344 -0.810547,0.9277344 -0.810547,2.52929686 V 6.5524049 H 36.989721 V 0.00943613 q 0,-1.58203123 -0.55664,-2.33398433 -0.556641,-0.7617188 -1.71875,-0.7617188 -1.376953,0 -2.1875,0.9375 -0.810547,0.9277344 -0.810547,2.51953126 V 6.5524049 h -1.806641 v -10.9375 h 1.806641 v 1.6992187 q 0.615234,-1.0058593 1.474609,-1.484375 0.859375,-0.4785156 2.041016,-0.4785156 1.191406,0 2.021484,0.6054688 0.839844,0.6054687 1.240235,1.7578125 z" />
    <path
      style="fill:#3f3f3f;"
      d="m 49.284643,2.2359986 v -6.6210937 h 1.796875 v 6.5527344 q 0,1.5527343 0.605469,2.3339843 0.605469,0.7714844 1.816406,0.7714844 1.455078,0 2.294922,-0.9277344 0.849609,-0.9277343 0.849609,-2.5292968 v -6.2011719 h 1.796875 v 10.9375 H 56.647924 V 4.8727174 q -0.654296,0.9960937 -1.523437,1.484375 -0.859375,0.4785156 -2.001953,0.4785156 -1.884766,0 -2.861328,-1.171875 -0.976563,-1.171875 -0.976563,-3.4277344 z m 4.521485,-6.8847656 z" />
    <path
      style="fill:#3f3f3f;"
      d="m 62.165503,-8.6429076 h 1.796875 V 6.5524049 h -1.796875 z" />
    <path
      style="fill:#3f3f3f;"
      d="M 77.067846,0.63443613 V 1.5133424 h -8.261718 q 0.117187,1.8554687 1.113281,2.8320312 1.005859,0.9667969 2.792969,0.9667969 1.035156,0 2.001953,-0.2539062 0.976562,-0.2539063 1.933593,-0.7617188 v 1.6992188 q -0.966796,0.4101562 -1.982421,0.625 -1.015625,0.2148437 -2.060547,0.2148437 -2.617188,0 -4.150391,-1.5234375 -1.523437,-1.5234375 -1.523437,-4.1210937 0,-2.6855469 1.445312,-4.2578125 1.455078,-1.5820313 3.916016,-1.5820313 2.207031,0 3.486328,1.4257813 1.289062,1.4160156 1.289062,3.85742183 z M 75.270971,0.10709238 Q 75.25144,-1.367517 74.440893,-2.2464232 q -0.800781,-0.8789063 -2.128906,-0.8789063 -1.503906,0 -2.412109,0.8496094 -0.898438,0.8496094 -1.035157,2.39257811 z" />
    <path
      style="fill:#3f3f3f;"
      d="m 81.794409,-7.4905639 v 3.1054688 h 3.701172 v 1.3964844 h -3.701172 v 5.9375 q 0,1.3378906 0.361328,1.71875 0.371094,0.3808593 1.494141,0.3808593 h 1.845703 v 1.5039063 h -1.845703 q -2.080079,0 -2.871094,-0.7714844 -0.791016,-0.78125 -0.791016,-2.8320312 v -5.9375 h -1.318359 v -1.3964844 h 1.318359 v -3.1054688 z" />
  </symbol>

  <symbol id="logo" viewBox="-13 -14 26 26" width="26" height="26">
      <path style="fill:#5fbcd3" d="M 9.51057,-3.09017 -1.83697e-15,-10 -9.51057,-3.09017 -5.87785,8.09017 5.87785,8.09017 9.51057,-3.09017 z" />
      <path style="fill:#216778" d="M 10.7181,-2.47446 12.6668,-2.92436 8.52877,9.81122 7.21665,8.30181 z" />
      <path style="fill:#216778" d="M 0.958713,-10.9581 1.13302,-12.9505 11.9666,-5.0795 10.1256,-4.29804 z" />
      <path style="fill:#216778" d="M -10.1256,-4.29804 -11.9666,-5.0795 -1.13302,-12.9505 -0.958713,-10.9581 z" />
      <path style="fill:#216778" d="M -7.21665,8.30181 -8.52877,9.81122 -12.6668,-2.92436 -10.7181,-2.47446 z" />
      <path style="fill:#216778" d="M 5.66542,9.42884 6.69549,11.1432 -6.69549,11.1432 -5.66542,9.42884 z" />
      <path style="fill:#216778" d="M 10.7181,-2.47446 12.6668,-2.92436 8.52877,9.81122 7.21665,8.30181 z" />
      <path style="fill:#ffffff" d="M 0,4.5424805 2.0141602,-0.89941406 H -2.0068359 Z M -0.83496094,6 -5.0097656,-4.9350586 h 1.5600586 l 0.9960937,2.8051758 H 2.4755859 L 3.4716797,-4.9350586 H 5.0097656 L 0.84228516,6 Z" />
  </symbol>
</svg>
